<svg width="233" height="77" viewBox="0 0 233 77" fill="none" xmlns="http://www.w3.org/2000/svg">
<g clip-path="url(#clip0_14418_27443)">
<path d="M117.242 54.9576V42.454H124.813V74.2816H117.242V61.687H104.781V74.2816H97.2109V42.454H104.781V54.9576H117.242Z" fill="#FF8500"/>
<path d="M137.369 51.002C140.379 49.911 143.2 49.911 146.162 51.002C149.172 52.048 151.852 53.8666 153.498 57.1403C155.144 60.414 155.144 64.688 153.498 67.9616C151.852 71.19 149.172 72.9633 146.162 74.009C143.2 74.9636 140.379 74.9636 137.369 74.009C134.407 72.9633 131.727 71.19 130.081 67.9616C128.435 64.688 128.435 60.414 130.081 57.1403C131.727 53.8666 134.407 52.048 137.369 51.002ZM136.006 62.551C136.006 64.3243 136.57 65.7793 137.746 66.825C138.921 67.8706 140.238 68.4163 141.789 68.4163C143.341 68.4163 144.658 67.8706 145.786 66.825C146.962 65.7793 147.526 64.3243 147.526 62.551C147.526 60.6866 146.962 59.1863 145.786 58.1406C144.658 57.0493 143.341 56.5036 141.789 56.5036C140.238 56.5036 138.921 57.0493 137.746 58.1406C136.57 59.1863 136.006 60.6866 136.006 62.551Z" fill="#FF8500"/>
<path d="M191.001 50.1836C193.822 50.1836 196.173 51.1383 198.007 53.0026C199.888 54.8669 200.828 57.6859 200.828 61.4596V74.2816H193.399V61.6869C193.399 58.5496 191.8 56.4583 188.744 56.4583C185.922 56.4583 184.041 58.5043 183.289 61.0506V74.2816H175.86V61.6869C175.86 58.6406 173.979 56.4583 171.11 56.4583C168.148 56.4583 166.267 58.3223 165.75 61.0506V74.2816H158.32V50.6383H165.75V55.0943C165.797 54.1849 166.502 53.1389 167.866 51.9569C169.229 50.7746 170.922 50.1836 173.038 50.1836C176.565 50.1836 180.045 52.1386 181.972 55.4579C182.396 54.3213 183.43 53.1846 184.982 52.0023C186.534 50.7746 188.555 50.1836 191.001 50.1836Z" fill="#FF8500"/>
<path d="M216.952 50.1836C219.914 50.1836 222.876 51.3203 225.463 53.5483C228.049 55.7306 229.46 59.9139 228.707 65.0063H211.826C212.626 67.4616 214.601 68.6893 217.657 68.6893C218.786 68.6893 219.679 68.6436 220.478 68.4163L221.419 68.1436C221.795 68.0073 223.065 67.5069 223.3 67.3706L227.391 71.1899C224.899 73.5543 221.56 74.7363 217.375 74.7363C215.259 74.7363 213.237 74.3273 211.309 73.4633C207.5 71.6899 204.397 67.6889 204.397 62.5509C204.397 54.2303 211.45 50.1836 216.952 50.1836ZM216.952 56.3219C214.742 56.3219 212.767 57.5949 211.873 59.9139H222.03C221.466 57.5949 219.256 56.3219 216.952 56.3219Z" fill="#FF8500"/>
<path fill-rule="evenodd" clip-rule="evenodd" d="M78.6907 76.6666C86.2911 68.9809 90.958 58.5723 90.958 47.113C90.958 23.46 71.0767 4.28564 46.5519 4.28564C22.0269 4.28564 2.14551 23.46 2.14551 47.113C2.14551 58.2466 6.55063 68.3879 13.7716 76.0041V54.3352H9.36151L45.9966 20.3458L64.8693 37.4768V31.0526H75.3269V45.5069L82.6318 54.3352H78.6907V76.6666Z" fill="#154D7A"/>
<path d="M30.1201 49.0245H34.8862V53.4185H30.1201V49.0245ZM30.1201 55.7049H34.8862V74.2819H30.1201V55.7049Z" fill="#154D7A"/>
<path d="M49.234 55.7048V59.4918H45.1331V68.6732C45.1331 69.8522 45.7612 70.4238 46.9802 70.4238C47.6083 70.4238 48.3842 70.2808 49.234 70.0308V73.7818C48.2363 74.2462 47.0543 74.4962 45.6502 74.4962C42.2881 74.4962 40.4038 73.2818 40.4038 69.6735V59.4918H37.7068V55.7048H40.4038V50.9535H45.1331V55.7048H49.234Z" fill="#154D7A"/>
<path d="M65.8529 59.9562L61.8996 60.9922C61.2716 59.6706 60.348 59.0276 59.1287 59.0276C57.9098 59.0276 56.949 59.7062 56.949 60.7066C56.949 61.5282 57.5771 62.1712 58.7964 62.6356L61.0499 63.3859C62.7866 63.9932 63.6733 64.3862 64.8184 65.2436C66.0008 66.0652 66.5179 67.2799 66.5179 68.8876C66.5179 70.7096 65.8161 72.1029 64.3751 73.1389C62.9342 74.1392 61.1978 74.6392 59.0919 74.6392C55.2127 74.6392 52.4049 72.7459 51.6289 69.4949L55.3974 68.3516C55.9514 69.8879 57.2817 70.9596 59.0919 70.9596C60.6807 70.9596 61.8996 70.1022 61.8996 68.9589C61.8996 68.1372 61.2347 67.4942 59.9047 66.9942L57.6881 66.2439C54.1413 64.9936 52.3677 63.1359 52.3677 60.6709C52.3677 59.0632 52.9957 57.7772 54.2888 56.8126C55.5822 55.8479 57.1338 55.3479 58.944 55.3479C62.3433 55.3479 64.7815 57.0982 65.8529 59.9562Z" fill="#154D7A"/>
</g>
<defs>
<clipPath id="clip0_14418_27443">
<rect width="232" height="76" fill="white" transform="translate(0.333008 0.666626)"/>
</clipPath>
</defs>
</svg>
