<svg id="Layer_1" data-name="Layer 1" xmlns="http://www.w3.org/2000/svg" viewBox="0 0 595.17 109.97">
  <defs>
    <style>
      .cls-1 {
        fill: #373543;
      }

      .cls-2 {
        fill: #494949;
      }

      .cls-3 {
        fill: #00d600;
      }
    </style>
  </defs>
  <path class="cls-1" d="M98.89,85.06a20.25,20.25,0,0,1-.11,3,21.66,21.66,0,0,1-1.68,6.61,23,23,0,0,1-9,10.36,33.54,33.54,0,0,1-12.78,4.51,40.39,40.39,0,0,1-6.67.42,32.94,32.94,0,0,1-6.58-.76l2.17-.31a88,88,0,0,0,10.48-2.18,43.82,43.82,0,0,0,11.41-4.8,26.44,26.44,0,0,0,4.72-3.76,21.75,21.75,0,0,0,3.68-4.78A26.56,26.56,0,0,0,97,87.71a28.53,28.53,0,0,0,.91-3.32,0,0,0,0,1,0,0c.17-.78.33-1.58.49-2.38,0-.18-.22.84-.19.65,0,.24.39-.73.42-.5A23.63,23.63,0,0,1,98.89,85.06Z" transform="translate(-0.98 0)" />
  <polygon class="cls-2" points="100.87 33.39 100.61 33.9 102.42 34.13 100.87 33.39" />
  <path class="cls-1" d="M104.94,34.92l-3.09-1.52,6.56-13.34h0s1.38-3,.44-5.46A4.66,4.66,0,0,0,106.14,12c-4.65-2-8.46,3.49-8.62,3.72L94.67,13.8c1.89-2.81,7-7.45,12.83-5a8.07,8.07,0,0,1,4.58,4.55c1.45,3.82-.48,8-.56,8.16Z" transform="translate(-0.98 0)" />
  <path class="cls-1" d="M116.76,38.2l-3.15-1.4.33-.76c0-.08,1.69-3.58-.27-5.79-1.6-1.81-4.17-1.91-5.47-1.83l-3.06,6.11L102.06,33l3.86-7.71.82-.16c.25-.05,6-1.13,9.51,2.84s.93,9.32.82,9.54Z" transform="translate(-0.98 0)" />
  <path class="cls-1" d="M74.38,25.83l-3.11-1.47,6-12.76a4.14,4.14,0,0,0-.11-3.71,3.9,3.9,0,0,0-2.82-2l-.26,0c-3-.33-4.31,2.7-4.32,2.73l-.1.2-6.22,11-3-1.69L66.64,7.14a7.83,7.83,0,0,1,7.83-4.75l.45.06a7.29,7.29,0,0,1,5.31,3.83,7.57,7.57,0,0,1,.19,6.78Z" transform="translate(-0.98 0)" />
  <path class="cls-1" d="M89.84,31.56l-3.1-1.51,7.45-15.23C95.51,12,95.82,9.14,95,7.09a6,6,0,0,0-3.64-3.33c-5.64-2.17-10.67,8.66-10.72,8.77l-3.15-1.4c.26-.58,6.35-14,15.11-10.58a9.39,9.39,0,0,1,5.6,5.26c1.19,3,.85,6.79-.91,10.51Z" transform="translate(-0.98 0)" />
  <g>
    <g>
      <path class="cls-3" d="M9.44,34.31c.66.81,1.37,1.67,2.13,2.55a9.64,9.64,0,0,0-1.16,2c-.78-.9-1.52-1.76-2.2-2.6l-.89-1.1a81.42,81.42,0,0,1-6.09-8.57L1,26.2,4.4,15.33l0,0L6.53,16l-.84,2.67-2.3,7.3a83.32,83.32,0,0,0,5.28,7.42Z" transform="translate(-0.98 0)" />
      <path class="cls-3" d="M26,52.53c.25.45.49.9.7,1.37-1.91-1.4-3.72-2.84-5.42-4.29-1.49-1.27-2.9-2.55-4.23-3.82-1.7-1.62-3.27-3.22-4.7-4.77a35.71,35.71,0,0,1,5.82,3.16c.59.39,1.17.82,1.73,1.26h0q1.08,1,2.22,2A23.34,23.34,0,0,1,26,52.53Z" transform="translate(-0.98 0)" />
      <path class="cls-3" d="M142,60.22l-35,32-.74-.93a38.52,38.52,0,0,0-7.32-6.25c-.3-.21-.61-.43-.93-.64l0,0-.14-.09A102,102,0,0,0,77.72,74.13a1.33,1.33,0,0,0-.28-.1l-.28-.12a37.13,37.13,0,0,0-2.56-3.32l1.2.43.13,0A107.57,107.57,0,0,1,98.42,82a1.5,1.5,0,0,0,.23.15A49.29,49.29,0,0,1,107.17,89l32.54-29.77L139.44,51l-.06-1.89,2.21-.07h0Z" transform="translate(-0.98 0)" />
    </g>
    <path class="cls-3" d="M141.59,49l-1-.82c-5.5-4.63-14.55-8.37-23.34-11.19L114,36c-2.93-.86-5.78-1.63-8.41-2.29h0l-3.43-.82h0c-2.2-.51-4.15-.92-5.72-1.25-2-.42-4-.87-5.92-1.37-1.14-.29-2.27-.6-3.37-.93q-2.88-.84-5.59-1.83c-2.35-.85-4.57-1.75-6.65-2.68-1.08-.47-2.12-1-3.13-1.45A85.39,85.39,0,0,1,63.89,19c-1-.63-2-1.25-2.89-1.89C49.42,9.16,45.14,1.58,45.08,1.47L44.63.64,4.42,15.29h0v0l.37,1c.29.78.59,1.54.92,2.29a53.85,53.85,0,0,0,6.94,11.79c.23.31.47.62.71.92.74.92,1.5,1.82,2.29,2.69l.69-.16a10.56,10.56,0,0,1,2-.19c-.89-.94-1.75-1.93-2.58-2.93-.31-.36-.6-.73-.88-1.1a51.92,51.92,0,0,1-7.59-13L43.63,3.36C45.85,6.87,55.8,20.51,80.76,29.57A109,109,0,0,0,96,33.78c9.3,1.91,31.57,7.13,42.25,15.31l-30.81,28c-3-2.37-14.94-10.89-34-15.25A143.92,143.92,0,0,1,43.7,51.54c-1.61-.77-3.22-1.6-4.83-2.47h0l-.5-.26c.61,1.11,1.18,2.25,1.7,3.4l.1,0q2.25,1.16,4.49,2.19c1.29.59,2.58,1.16,3.86,1.7,1.55.65,3.07,1.26,4.58,1.83a151.92,151.92,0,0,0,14.95,4.79l.1,0c1.75.46,3.35.85,4.77,1.17,21.22,4.85,33.67,15.29,33.79,15.39l.74.63,32-29,2.15-2Z" transform="translate(-0.98 0)" />
    <path class="cls-3" d="M121.13,54.25l-.47-.15a4.57,4.57,0,0,0-.77-.75,9.52,9.52,0,0,1-3.36-8.75l.12-.79-.71-.36c-6.08-3.13-15.16-5.25-24.77-7.49-10-2.34-20.33-4.76-26.45-8.32-7.38-4.31-10.08-8.26-11-10.23l-.3-.61h-.68a9.47,9.47,0,0,1-5.92-2.2l-.61-.51C44.83,13,43.44,11.84,43,10.52l-.38-1.18L22,18.55l1.27,1.14c2.21,2,3.13,7.3,1.68,9.65l-.47.76.22.22.43.4a90.54,90.54,0,0,0,13,10.36C50,48.9,64.51,54.66,81.94,58.54,94.36,61.3,97.61,65.2,98.13,66l.67,1,.92-.73c3-2.33,5.7-2.21,9.18.42l.74.55L123,54.82Zm-11.65,10a10.07,10.07,0,0,0-5.62-2,8.41,8.41,0,0,0-4.64,1.49c-1.68-1.76-6.1-5.06-16.79-7.45-23.65-5.26-41.71-14-55.18-26.68,1.21-3,.54-7.6-1.42-10.42l15.58-7a13.68,13.68,0,0,0,3.38,3.49q.3.25.6.48A11.67,11.67,0,0,0,52,19c1.28,2.34,4.36,6.36,11.6,10.58,6.41,3.74,16.9,6.19,27.06,8.56,8.71,2,17.71,4.14,23.58,7a11.65,11.65,0,0,0,4.22,10,2.93,2.93,0,0,1,.48.47Z" transform="translate(-0.98 0)" />
  </g>
  <path class="cls-1" d="M194.2,77.48V87.62H161.85V40H174V77.48Z" transform="translate(-0.98 0)" />
  <path class="cls-1" d="M234.24,69.24c0,11.3-8,18.79-20,18.79s-20.09-7.49-20.09-18.79,8-18.73,20.09-18.73S234.24,57.93,234.24,69.24ZM206,69.37c0,5.72,3.33,9.54,8.24,9.54s8.17-3.82,8.17-9.54-3.34-9.53-8.17-9.53S206,63.72,206,69.37Z" transform="translate(-0.98 0)" />
  <path class="cls-1" d="M271.14,87.62l-7.21-23.29-7.22,23.29H245l-13.41-36.7h12l7.56,25.4,7.36-25.4h11.23l7.56,25.4,7.43-25.4h11.51l-13.42,36.7Z" transform="translate(-0.98 0)" />
  <path class="cls-1" d="M331.07,72.44H305.26c1.16,4.35,4.29,6.81,8.65,6.81a12.4,12.4,0,0,0,8.78-3.75l6.2,6.06c-3.75,4.09-9.26,6.47-16,6.47-12,0-19.47-7.49-19.47-18.66,0-11.37,7.76-18.86,19.13-18.86C325.48,50.51,331.88,59,331.07,72.44ZM319.76,66.1c0-4.49-2.86-7.42-7.08-7.42s-6.88,3-7.63,7.42Z" transform="translate(-0.98 0)" />
  <path class="cls-1" d="M346.52,57.11a13.41,13.41,0,0,1,11.92-6.74V61c-6.81-.62-11.31,2.58-11.92,7.76V87.62H334.74V50.92h11.78Z" transform="translate(-0.98 0)" />
  <path class="cls-3" d="M401.28,87.62l-.07-29.94L390.15,83h-7.63L371.46,57.68V87.62H361V41.49h12.83l12.51,27.44,12.5-27.44h12.77V87.62Z" transform="translate(-0.98 0)" />
  <path class="cls-3" d="M439.58,91.31c-2.63,6.45-7.11,9.61-13.69,9.61a16.11,16.11,0,0,1-10.33-3.62l4.74-7.77A7.14,7.14,0,0,0,425,91.44a4.55,4.55,0,0,0,4.41-2.83l.86-1.78L415.5,52.15h11.71l8.69,23.56,7.7-23.56h11.32Z" transform="translate(-0.98 0)" />
  <path class="cls-1" d="M480.85,41.56c10.33,0,16.91,4.47,16.91,11.51a10.32,10.32,0,0,1-7.9,10.14,11.35,11.35,0,0,1,9.48,11.65c0,7.83-6.84,12.76-17.7,12.76H459.06V41.56ZM470.71,60h9.48c3.42,0,5.59-1.84,5.59-4.8s-2.17-4.67-5.59-4.67h-9.48Zm0,18.63h9.48c4.34,0,7-1.91,7-5.2,0-3.1-2.7-5-7-5h-9.48Z" transform="translate(-0.98 0)" />
  <path class="cls-1" d="M517.77,42a6,6,0,1,1-12,0,6,6,0,0,1,12,0ZM506.06,87.62V52.15h11.32V87.62Z" transform="translate(-0.98 0)" />
  <path class="cls-1" d="M526.85,87.62V38.79h11.39V87.62Z" transform="translate(-0.98 0)" />
  <path class="cls-1" d="M548,87.62V38.79h11.39V87.62Z" transform="translate(-0.98 0)" />
  <path class="cls-1" d="M596.09,55.64,592.21,63c-4.28-2.3-8.23-3.55-11.19-3.55-2,0-3.49.79-3.49,2.43,0,4.87,18.69,2.5,18.63,14.87,0,7.31-6.39,11.32-14.94,11.32a26.24,26.24,0,0,1-15.93-5l3.62-7.24a22.75,22.75,0,0,0,12.57,4.41c2.24,0,3.88-.79,3.88-2.43,0-5.2-18.36-2.5-18.29-14.94,0-7.31,6.18-11.26,14.41-11.26A29,29,0,0,1,596.09,55.64Z" transform="translate(-0.98 0)" />
  <path class="cls-1" d="M78.86,76.6c-.1-.18-.21-.36-.32-.54q-.44-.72-.9-1.44l-.48-.71a37.13,37.13,0,0,0-2.56-3.32,31,31,0,0,0-2.15-2.28,36.73,36.73,0,0,0-4-3.25,33.51,33.51,0,0,0-4.48-2.54,36.6,36.6,0,0,0-9.79-2.88,41.39,41.39,0,0,0-5.09-.4c-.85,0-1.7,0-2.54,0a22.92,22.92,0,0,0-2.45.23l-1.45.21-.39-1.47a42.63,42.63,0,0,0-2.16-6c-.52-1.15-1.09-2.29-1.7-3.4-.49-.92-1-1.83-1.58-2.7a31.21,31.21,0,0,0-8.89-9.42,18.54,18.54,0,0,0-2.75-1.52,16.18,16.18,0,0,0-6.85-1.49,10.56,10.56,0,0,0-2,.19l-.69.16a7.5,7.5,0,0,0-3.85,2.57,1.94,1.94,0,0,0-.21.27,9.64,9.64,0,0,0-1.16,2,.75.75,0,0,1-.06.13c-.14.35-.26.7-.37,1.06.79.29,1.58.6,2.35.94a35.71,35.71,0,0,1,5.82,3.16c.59.39,1.17.82,1.73,1.26h0a26.13,26.13,0,0,1,2.22,2A23.34,23.34,0,0,1,26,52.53c.25.45.49.9.7,1.37a22.54,22.54,0,0,1,1.45,4,26.68,26.68,0,0,1,.78,5.65A48.9,48.9,0,0,1,28.64,69a41,41,0,0,0,0,5.08,30,30,0,0,0,2.18,9.76,22.54,22.54,0,0,0,5.87,8A27.78,27.78,0,0,0,45.47,97l.06,0a37.29,37.29,0,0,0,9.56,2.1c.23,0,.47,0,.7.06l-.68,0a34,34,0,0,1-9.92-1.1,28.06,28.06,0,0,1-9.79-4.63A24,24,0,0,1,28.33,85a30.26,30.26,0,0,1-3-10.65,43.92,43.92,0,0,1-.23-5.49,46.67,46.67,0,0,0,0-5.14,21.22,21.22,0,0,0-.79-4.79,18.74,18.74,0,0,0-1.88-4.38,19.3,19.3,0,0,0-2.94-3.75,25.25,25.25,0,0,0-3.76-3,36.63,36.63,0,0,0-9-4.12L5,43.09l.2-1.78a10.76,10.76,0,0,1,.18-1.09c.07-.33.14-.66.23-1a16.53,16.53,0,0,1,.65-1.91,14.31,14.31,0,0,1,1.08-2.14,11.2,11.2,0,0,1,1-1.41l.36-.44a11.72,11.72,0,0,1,4-2.93,11.58,11.58,0,0,1,2.21-.77c.2-.05.42-.1.62-.13a15.73,15.73,0,0,1,4-.23,18.53,18.53,0,0,1,3.84.62c.47.12.93.26,1.37.42a21.07,21.07,0,0,1,2.27.91,22.53,22.53,0,0,1,3.31,1.9,32.86,32.86,0,0,1,7.88,7.95q1,1.45,2,3a45.16,45.16,0,0,1,3.59,7.49c.36,1,.68,1.92,1,2.9.17.55.33,1.11.47,1.67.43,0,.87,0,1.31,0,.7,0,1.39,0,2.08.06l.68,0a41.26,41.26,0,0,1,5.43.77,36.42,36.42,0,0,1,10.25,3.77q1.19.67,2.31,1.44l0,0c.28.19.56.37.82.58.45.32.9.65,1.34,1a32.86,32.86,0,0,1,3.89,3.75c.24.28.48.57.71.86a.09.09,0,0,1,0,0,29.91,29.91,0,0,1,1.91,2.64,31.47,31.47,0,0,1,1.79,3.07c.33.65.64,1.31.92,2C78.72,76.27,78.79,76.44,78.86,76.6Z" transform="translate(-0.98 0)" />
</svg>